<svg width="5" height="5" viewBox="0 0 5 5" fill="none" xmlns="http://www.w3.org/2000/svg">
<path d="M0.141921 5C0.0473071 5 0 4.96795 0 4.90385L0.0218341 4.82692L1.21179 2.53846C1.22635 2.51282 1.22635 2.48718 1.21179 2.46154L0.0218341 0.173077L0 0.0961538C0 0.0320513 0.0473071 0 0.141921 0H2.01965C2.11426 0 2.17613 0.0384615 2.20524 0.115385L2.45633 0.759615C2.47089 0.785256 2.48544 0.798077 2.5 0.798077C2.52183 0.798077 2.53639 0.785256 2.54367 0.759615L2.79476 0.115385C2.82387 0.0384615 2.88573 0 2.98035 0H4.85808C4.95269 0 5 0.0320513 5 0.0961538L4.97817 0.173077L3.78821 2.46154C3.77365 2.48718 3.77365 2.51282 3.78821 2.53846L4.97817 4.82692L5 4.90385C5 4.96795 4.95269 5 4.85808 5H2.98035C2.88573 5 2.82387 4.96154 2.79476 4.88462L2.54367 4.20192C2.53639 4.16987 2.52183 4.15385 2.5 4.15385C2.48544 4.15385 2.47089 4.16987 2.45633 4.20192L2.20524 4.88462C2.17613 4.96154 2.11426 5 2.01965 5H0.141921Z" fill="white"/>
</svg>
